<svg width="16" height="16" viewBox="0 0 16 16" fill="none" xmlns="http://www.w3.org/2000/svg">
<g clip-path="url(#clip0_15_229)">
<path d="M14.7375 0.678137C14.0531 -0.0062378 12.9469 -0.0062378 12.2625 0.678137L11.3219 1.61564L14.3813 4.67501L15.3219 3.73439C16.0063 3.05001 16.0063 1.94376 15.3219 1.25939L14.7375 0.678137ZM5.3875 7.55314C5.19687 7.74376 5.05 7.97814 4.96562 8.23751L4.04063 11.0125C3.95 11.2813 4.02188 11.5781 4.22188 11.7813C4.42188 11.9844 4.71875 12.0531 4.99062 11.9625L7.76562 11.0375C8.02188 10.9531 8.25625 10.8063 8.45 10.6156L13.6781 5.38439L10.6156 2.32189L5.3875 7.55314ZM3 2.00001C1.34375 2.00001 0 3.34376 0 5.00001V13C0 14.6563 1.34375 16 3 16H11C12.6562 16 14 14.6563 14 13V10C14 9.44689 13.5531 9.00001 13 9.00001C12.4469 9.00001 12 9.44689 12 10V13C12 13.5531 11.5531 14 11 14H3C2.44688 14 2 13.5531 2 13V5.00001C2 4.44689 2.44688 4.00001 3 4.00001H6C6.55312 4.00001 7 3.55314 7 3.00001C7 2.44689 6.55312 2.00001 6 2.00001H3Z" fill="black"/>
</g>
<defs>
<clipPath id="clip0_15_229">
<rect width="16" height="16" fill="white"/>
</clipPath>
</defs>
</svg>
