<svg width="16" height="15" viewBox="0 0 16 15" fill="none" xmlns="http://www.w3.org/2000/svg">
<g clip-path="url(#clip0_14_70)">
<path d="M15.9944 7.09722C15.9944 7.59722 15.5778 7.98889 15.1056 7.98889H14.2167L14.2361 12.4389C14.2361 12.5139 14.2306 12.5889 14.2222 12.6639V13.1111C14.2222 13.725 13.725 14.2222 13.1111 14.2222H12.6667C12.6361 14.2222 12.6056 14.2222 12.575 14.2194C12.5361 14.2222 12.4972 14.2222 12.4583 14.2222H11.5556H10.8889C10.275 14.2222 9.77778 13.725 9.77778 13.1111V12.4444V10.6667C9.77778 10.175 9.38056 9.77778 8.88889 9.77778H7.11111C6.61944 9.77778 6.22222 10.175 6.22222 10.6667V12.4444V13.1111C6.22222 13.725 5.725 14.2222 5.11111 14.2222H4.44444H3.55833C3.51667 14.2222 3.475 14.2194 3.43333 14.2167C3.4 14.2194 3.36667 14.2222 3.33333 14.2222H2.88889C2.275 14.2222 1.77778 13.725 1.77778 13.1111V10C1.77778 9.975 1.77778 9.94722 1.78056 9.92222V7.98889H0.888889C0.388889 7.98889 0 7.6 0 7.09722C0 6.84722 0.0833333 6.625 0.277778 6.43056L7.4 0.222222C7.59444 0.0277778 7.81667 0 8.01111 0C8.20556 0 8.42778 0.0555556 8.59444 0.194444L15.6889 6.43056C15.9111 6.625 16.0222 6.84722 15.9944 7.09722Z" fill="white"/>
</g>
<defs>
<clipPath id="clip0_14_70">
<rect width="16" height="14.2222" fill="white"/>
</clipPath>
</defs>
</svg>
