<svg width="11" height="12" viewBox="0 0 11 12" fill="none" xmlns="http://www.w3.org/2000/svg">
<g clip-path="url(#clip0_15_127)">
<path d="M7.125 3C7.125 2.50272 6.92746 2.02581 6.57583 1.67417C6.22419 1.32254 5.74728 1.125 5.25 1.125C4.75272 1.125 4.27581 1.32254 3.92417 1.67417C3.57254 2.02581 3.375 2.50272 3.375 3C3.375 3.49728 3.57254 3.97419 3.92417 4.32583C4.27581 4.67746 4.75272 4.875 5.25 4.875C5.74728 4.875 6.22419 4.67746 6.57583 4.32583C6.92746 3.97419 7.125 3.49728 7.125 3ZM2.25 3C2.25 2.20435 2.56607 1.44129 3.12868 0.87868C3.69129 0.316071 4.45435 0 5.25 0C6.04565 0 6.80871 0.316071 7.37132 0.87868C7.93393 1.44129 8.25 2.20435 8.25 3C8.25 3.79565 7.93393 4.55871 7.37132 5.12132C6.80871 5.68393 6.04565 6 5.25 6C4.45435 6 3.69129 5.68393 3.12868 5.12132C2.56607 4.55871 2.25 3.79565 2.25 3ZM1.15547 10.875H9.34453C9.13594 9.39141 7.86094 8.25 6.32109 8.25H4.17891C2.63906 8.25 1.36406 9.39141 1.15547 10.875ZM0 11.3039C0 8.99531 1.87031 7.125 4.17891 7.125H6.32109C8.62969 7.125 10.5 8.99531 10.5 11.3039C10.5 11.6883 10.1883 12 9.80391 12H0.696094C0.311719 12 0 11.6883 0 11.3039Z" fill="#5C5B64"/>
</g>
<defs>
<clipPath id="clip0_15_127">
<rect width="10.5" height="12" fill="white"/>
</clipPath>
</defs>
</svg>
